<mxfile host="app.diagrams.net" modified="2024-07-23T14:33:20.970Z" agent="Mozilla/5.0 (Windows NT 10.0; Win64; x64) AppleWebKit/537.36 (KHTML, like Gecko) Chrome/125.0.0.0 Safari/537.36" version="24.7.1" etag="aAM5frul1SnAxw1pt7WR" type="github">
  <diagram name="PÃ¡gina-1" id="OtdtG21A4MWKfjTUv8rl">
    <mxGraphModel>
      <root>
        <mxCell id="0" />
        <mxCell id="1" parent="0" />
      </root>
    </mxGraphModel>
  </diagram>
</mxfile>
